<mxfile host="Electron" agent="Mozilla/5.0 (Windows NT 10.0; Win64; x64) AppleWebKit/537.36 (KHTML, like Gecko) draw.io/24.7.8 Chrome/128.0.6613.36 Electron/32.0.1 Safari/537.36" version="24.7.8">
  <diagram name="Page-1" id="8I2YcJfnChed3qcPs-8e">
    <mxGraphModel dx="991" dy="817" grid="1" gridSize="10" guides="1" tooltips="1" connect="1" arrows="1" fold="1" page="1" pageScale="1" pageWidth="2336" pageHeight="1654" math="0" shadow="0">
      <root>
        <mxCell id="0" />
        <mxCell id="1" parent="0" />
        <mxCell id="ZsElE26mX-mR9gvdugH0-2" value="Arduino Uno" style="rounded=0;whiteSpace=wrap;html=1;" vertex="1" parent="1">
          <mxGeometry x="670" y="570" width="140" height="90" as="geometry" />
        </mxCell>
        <mxCell id="ZsElE26mX-mR9gvdugH0-3" value="Battery" style="rounded=0;whiteSpace=wrap;html=1;" vertex="1" parent="1">
          <mxGeometry x="670" y="870" width="140" height="90" as="geometry" />
        </mxCell>
        <mxCell id="ZsElE26mX-mR9gvdugH0-4" value="Ultrasonic Sensor" style="rounded=0;whiteSpace=wrap;html=1;" vertex="1" parent="1">
          <mxGeometry x="670" y="430" width="140" height="90" as="geometry" />
        </mxCell>
        <mxCell id="ZsElE26mX-mR9gvdugH0-6" value="Vaccum Motor" style="whiteSpace=wrap;html=1;aspect=fixed;" vertex="1" parent="1">
          <mxGeometry x="940" y="725" width="80" height="80" as="geometry" />
        </mxCell>
        <mxCell id="ZsElE26mX-mR9gvdugH0-7" value="Gear Motor" style="whiteSpace=wrap;html=1;aspect=fixed;" vertex="1" parent="1">
          <mxGeometry x="940" y="435" width="80" height="80" as="geometry" />
        </mxCell>
        <mxCell id="ZsElE26mX-mR9gvdugH0-9" value="H-Bridge Motor Driver" style="rounded=0;whiteSpace=wrap;html=1;" vertex="1" parent="1">
          <mxGeometry x="910" y="570" width="140" height="90" as="geometry" />
        </mxCell>
        <mxCell id="ZsElE26mX-mR9gvdugH0-10" value="Voltage Regulator" style="rounded=0;whiteSpace=wrap;html=1;" vertex="1" parent="1">
          <mxGeometry x="670" y="720" width="140" height="90" as="geometry" />
        </mxCell>
        <mxCell id="ZsElE26mX-mR9gvdugH0-11" value="" style="endArrow=classic;html=1;rounded=0;exitX=1;exitY=0.5;exitDx=0;exitDy=0;entryX=1;entryY=0.5;entryDx=0;entryDy=0;fillColor=#f8cecc;strokeColor=#b85450;" edge="1" parent="1" source="ZsElE26mX-mR9gvdugH0-3" target="ZsElE26mX-mR9gvdugH0-7">
          <mxGeometry width="50" height="50" relative="1" as="geometry">
            <mxPoint x="710" y="630" as="sourcePoint" />
            <mxPoint x="760" y="580" as="targetPoint" />
            <Array as="points">
              <mxPoint x="1120" y="915" />
              <mxPoint x="1120" y="475" />
            </Array>
          </mxGeometry>
        </mxCell>
        <mxCell id="ZsElE26mX-mR9gvdugH0-12" value="" style="endArrow=classic;html=1;rounded=0;exitX=0.5;exitY=0;exitDx=0;exitDy=0;entryX=0.5;entryY=1;entryDx=0;entryDy=0;fillColor=#f8cecc;strokeColor=#b85450;" edge="1" parent="1" source="ZsElE26mX-mR9gvdugH0-3" target="ZsElE26mX-mR9gvdugH0-10">
          <mxGeometry width="50" height="50" relative="1" as="geometry">
            <mxPoint x="710" y="630" as="sourcePoint" />
            <mxPoint x="760" y="580" as="targetPoint" />
          </mxGeometry>
        </mxCell>
        <mxCell id="ZsElE26mX-mR9gvdugH0-13" value="" style="endArrow=classic;html=1;rounded=0;exitX=1;exitY=0.5;exitDx=0;exitDy=0;entryX=0;entryY=0.5;entryDx=0;entryDy=0;" edge="1" parent="1" source="ZsElE26mX-mR9gvdugH0-10" target="ZsElE26mX-mR9gvdugH0-6">
          <mxGeometry width="50" height="50" relative="1" as="geometry">
            <mxPoint x="710" y="630" as="sourcePoint" />
            <mxPoint x="760" y="580" as="targetPoint" />
          </mxGeometry>
        </mxCell>
        <mxCell id="ZsElE26mX-mR9gvdugH0-15" value="" style="endArrow=classic;html=1;rounded=0;exitX=1;exitY=0.5;exitDx=0;exitDy=0;entryX=0;entryY=0.5;entryDx=0;entryDy=0;fillColor=#60a917;strokeColor=#2D7600;" edge="1" parent="1" source="ZsElE26mX-mR9gvdugH0-2" target="ZsElE26mX-mR9gvdugH0-9">
          <mxGeometry width="50" height="50" relative="1" as="geometry">
            <mxPoint x="710" y="630" as="sourcePoint" />
            <mxPoint x="760" y="580" as="targetPoint" />
          </mxGeometry>
        </mxCell>
        <mxCell id="ZsElE26mX-mR9gvdugH0-16" value="" style="endArrow=classic;html=1;rounded=0;exitX=0.5;exitY=0;exitDx=0;exitDy=0;entryX=0.5;entryY=1;entryDx=0;entryDy=0;fillColor=#60a917;strokeColor=#2D7600;" edge="1" parent="1" source="ZsElE26mX-mR9gvdugH0-9" target="ZsElE26mX-mR9gvdugH0-7">
          <mxGeometry width="50" height="50" relative="1" as="geometry">
            <mxPoint x="710" y="630" as="sourcePoint" />
            <mxPoint x="760" y="580" as="targetPoint" />
          </mxGeometry>
        </mxCell>
        <mxCell id="ZsElE26mX-mR9gvdugH0-17" value="" style="endArrow=classic;startArrow=classic;html=1;rounded=0;entryX=0.5;entryY=1;entryDx=0;entryDy=0;exitX=0.5;exitY=0;exitDx=0;exitDy=0;fillColor=#dae8fc;strokeColor=#6c8ebf;" edge="1" parent="1" source="ZsElE26mX-mR9gvdugH0-2" target="ZsElE26mX-mR9gvdugH0-4">
          <mxGeometry width="50" height="50" relative="1" as="geometry">
            <mxPoint x="710" y="630" as="sourcePoint" />
            <mxPoint x="760" y="580" as="targetPoint" />
          </mxGeometry>
        </mxCell>
        <mxCell id="ZsElE26mX-mR9gvdugH0-18" value="Sensor Data and Sensor Control signals" style="text;html=1;align=center;verticalAlign=middle;resizable=0;points=[];autosize=1;strokeColor=none;fillColor=none;" vertex="1" parent="1">
          <mxGeometry x="510" y="528" width="240" height="30" as="geometry" />
        </mxCell>
        <mxCell id="ZsElE26mX-mR9gvdugH0-19" value="" style="endArrow=classic;html=1;rounded=0;exitX=0.5;exitY=0;exitDx=0;exitDy=0;entryX=0.5;entryY=1;entryDx=0;entryDy=0;fillColor=#f8cecc;strokeColor=#b85450;" edge="1" parent="1" source="ZsElE26mX-mR9gvdugH0-10" target="ZsElE26mX-mR9gvdugH0-2">
          <mxGeometry width="50" height="50" relative="1" as="geometry">
            <mxPoint x="710" y="630" as="sourcePoint" />
            <mxPoint x="760" y="580" as="targetPoint" />
          </mxGeometry>
        </mxCell>
        <mxCell id="ZsElE26mX-mR9gvdugH0-20" value="12V" style="text;html=1;align=center;verticalAlign=middle;resizable=0;points=[];autosize=1;strokeColor=none;fillColor=none;" vertex="1" parent="1">
          <mxGeometry x="750" y="680" width="40" height="30" as="geometry" />
        </mxCell>
        <mxCell id="ZsElE26mX-mR9gvdugH0-21" value="12V" style="text;html=1;align=center;verticalAlign=middle;resizable=0;points=[];autosize=1;strokeColor=none;fillColor=none;" vertex="1" parent="1">
          <mxGeometry x="850" y="730" width="40" height="30" as="geometry" />
        </mxCell>
        <mxCell id="ZsElE26mX-mR9gvdugH0-22" value="5V" style="text;html=1;align=center;verticalAlign=middle;resizable=0;points=[];autosize=1;strokeColor=none;fillColor=none;" vertex="1" parent="1">
          <mxGeometry x="880" y="880" width="40" height="30" as="geometry" />
        </mxCell>
        <mxCell id="ZsElE26mX-mR9gvdugH0-23" value="5V" style="text;html=1;align=center;verticalAlign=middle;resizable=0;points=[];autosize=1;strokeColor=none;fillColor=none;" vertex="1" parent="1">
          <mxGeometry x="750" y="827" width="40" height="30" as="geometry" />
        </mxCell>
        <mxCell id="ZsElE26mX-mR9gvdugH0-24" value="Control Signal" style="text;html=1;align=center;verticalAlign=middle;resizable=0;points=[];autosize=1;strokeColor=none;fillColor=none;" vertex="1" parent="1">
          <mxGeometry x="810" y="580" width="100" height="30" as="geometry" />
        </mxCell>
        <mxCell id="ZsElE26mX-mR9gvdugH0-25" value="Control Signal" style="text;html=1;align=center;verticalAlign=middle;resizable=0;points=[];autosize=1;strokeColor=none;fillColor=none;" vertex="1" parent="1">
          <mxGeometry x="980" y="528" width="100" height="30" as="geometry" />
        </mxCell>
      </root>
    </mxGraphModel>
  </diagram>
</mxfile>
